<svg width="685" height="78" viewBox="0 0 685 78" fill="none" xmlns="http://www.w3.org/2000/svg">
<rect width="256.086" height="77.6388" fill="white"/>
<path fill-rule="evenodd" clip-rule="evenodd" d="M107.809 33.0433V44.1522C107.809 44.3068 107.911 44.4099 108.066 44.4099H124.827C124.981 44.4099 125.084 44.513 125.084 44.6676V55.0548C125.084 55.2096 124.981 55.3126 124.827 55.3126H75.8549C75.7011 55.3126 75.5979 55.2096 75.5979 55.0548V44.6676C75.5979 44.513 75.7011 44.4099 75.8549 44.4099H92.5391C92.693 44.4099 92.7962 44.3068 92.7962 44.1522V33.0433C92.7962 32.8886 92.693 32.7855 92.5391 32.7855H75.8549C75.7011 32.7855 75.5979 32.6824 75.5979 32.5278V22.1406C75.5979 21.986 75.7011 21.8828 75.8549 21.8828H124.827C124.981 21.8828 125.084 21.986 125.084 22.1406V32.5278C125.084 32.6824 124.981 32.7855 124.827 32.7855H108.066C107.911 32.7855 107.809 32.9144 107.809 33.0433Z" fill="black"/>
<path d="M162.605 42.9139H154.61C154.456 42.9139 154.353 42.8108 154.353 42.6562V37.2435C154.353 37.0889 154.456 36.9858 154.61 36.9858H178.363C178.517 36.9858 178.62 37.0889 178.62 37.2435V55.054C178.62 55.2083 178.517 55.3118 178.363 55.3118H165.33C165.33 55.3118 165.021 55.2083 165.021 55.0023L164.944 52.631C164.944 52.5021 164.893 52.4763 164.79 52.5536C159.957 55.26 154.704 55.9487 149.255 55.7939C140.308 55.5362 129.134 53.7393 126.795 43.1974C126.204 40.5942 126.204 37.2435 126.795 34.1505C128.826 23.6087 140.523 21.7529 149.314 21.5725C159.006 21.3921 177.54 21.5983 178.517 35.5939C178.517 35.6713 178.491 35.7486 178.44 35.8001C178.389 35.8517 178.311 35.8775 178.234 35.8775H163.324C163.222 35.8775 163.119 35.8001 163.093 35.697C162.039 32.9134 158.903 31.6246 156.332 31.4442C152.399 31.1607 146.718 30.8514 143.736 33.068C140.523 35.465 140.42 41.8314 143.736 44.1511C145.844 45.6461 148.543 45.7749 151.525 45.8522H151.551C154.867 45.9296 160.394 46.0584 162.708 43.0686C162.81 42.9655 162.785 42.9139 162.605 42.9139Z" fill="black"/>
<path d="M58.2038 42.9139H50.209C50.0546 42.9139 49.9519 42.8108 49.9519 42.6562V37.2435C49.9519 37.0889 50.0546 36.9858 50.209 36.9858H73.962C74.1163 36.9858 74.219 37.0889 74.219 37.2435V55.054C74.219 55.2083 74.1163 55.3118 73.962 55.3118H60.9287C60.9287 55.3118 60.62 55.2083 60.62 55.0023L60.5429 52.631C60.5429 52.5021 60.4918 52.4763 60.3885 52.5536C55.5561 55.26 50.3032 55.9487 44.8534 55.7939C35.907 55.5362 24.7332 53.7393 22.3941 43.1974C21.8029 40.5942 21.8029 37.2435 22.3941 34.1505C24.4245 23.6087 36.1214 21.7529 44.913 21.5725C54.6045 21.3921 73.1392 21.5983 74.1163 35.5939C74.1163 35.6713 74.0902 35.7486 74.0391 35.8001C73.9875 35.8517 73.9103 35.8775 73.8332 35.8775H58.9234C58.8206 35.8775 58.7179 35.8001 58.6918 35.697C57.6381 32.9134 54.5018 31.6246 51.9312 31.4442C47.9982 31.1607 42.3168 30.8514 39.3349 33.068C36.1214 35.465 36.0187 41.8314 39.3349 44.1511C41.4429 45.6461 44.1418 45.7749 47.1238 45.8522H47.1498C50.466 45.9296 55.993 46.0584 58.3065 43.0686C58.4092 42.9655 58.3837 42.9139 58.2038 42.9139Z" fill="black"/>
<path d="M210.308 41.4709C210.609 41.4709 210.809 41.1584 210.682 40.8849L206.569 31.9994C206.421 31.6791 205.965 31.6807 205.819 32.0021L201.784 40.8876C201.66 41.1609 201.86 41.4709 202.16 41.4709H210.308ZM217.599 55.3084C217.437 55.3084 217.29 55.2141 217.223 55.0671L215.332 50.9223C215.265 50.7753 215.118 50.681 214.956 50.681H197.653C197.491 50.681 197.343 50.7767 197.277 50.9253L195.428 55.064C195.362 55.2127 195.214 55.3084 195.051 55.3084H180.656C180.352 55.3084 180.152 54.9908 180.284 54.7168L195.97 22.1165C196.039 21.9737 196.184 21.8828 196.342 21.8828H216.766C216.921 21.8828 217.063 21.9695 217.134 22.1074L233.828 54.7077C233.969 54.9823 233.77 55.3084 233.461 55.3084H217.599Z" fill="black"/>
<rect x="256.086" width="351.204" height="77.6388" rx="20.7308" fill="white"/>
<path d="M429.815 55.4009C429.678 55.4009 429.567 55.29 429.567 55.1532V22.2051C429.567 22.0683 429.678 21.9574 429.815 21.9574H456.009C474.864 21.9574 480.765 29.1495 480.765 37.7801V39.1736C480.765 47.4895 476.284 55.4009 456.009 55.4009H429.815ZM444.61 32.3411C444.473 32.3411 444.362 32.452 444.362 32.5888V44.8144C444.362 44.9513 444.473 45.0622 444.61 45.0622H456.473C466.011 45.0622 466.632 40.657 466.632 38.6791V38.4094C466.632 36.4316 465.878 32.3411 456.473 32.3411H444.61Z" fill="black"/>
<path fill-rule="evenodd" clip-rule="evenodd" d="M514.645 33.1238V44.2386C514.645 44.3934 514.748 44.4965 514.902 44.4965H531.672C531.827 44.4965 531.929 44.5997 531.929 44.7544V55.1472C531.929 55.302 531.827 55.405 531.672 55.405H482.674C482.52 55.405 482.417 55.302 482.417 55.1472V44.7544C482.417 44.5997 482.52 44.4965 482.674 44.4965H499.367C499.521 44.4965 499.625 44.3934 499.625 44.2386V33.1238C499.625 32.969 499.521 32.8659 499.367 32.8659H482.674C482.52 32.8659 482.417 32.7628 482.417 32.608V22.2153C482.417 22.0606 482.52 21.9574 482.674 21.9574H531.672C531.827 21.9574 531.929 22.0606 531.929 22.2153V32.608C531.929 32.7628 531.827 32.8659 531.672 32.8659H514.902C514.748 32.8659 514.645 32.9948 514.645 33.1238Z" fill="black"/>
<path d="M376.717 37.611V22.2051C376.717 22.0683 376.828 21.9574 376.964 21.9574H393.416C393.553 21.9574 393.664 22.0683 393.664 22.2051V35.8879C393.664 39.555 395.217 43.443 402.271 43.443H402.36C409.281 43.443 410.967 39.555 410.967 35.8879V22.2051C410.967 22.0683 411.077 21.9574 411.214 21.9574H427.666C427.803 21.9574 427.914 22.0683 427.914 22.2051V37.611C427.914 44.194 425.385 55.8138 403.38 55.8138H401.162C379.157 55.8138 376.717 44.194 376.717 37.611Z" fill="black"/>
<path d="M584.786 34.1998C582.757 23.6158 571.069 21.751 562.288 21.5686C561.339 21.5521 560.305 21.5396 559.216 21.5438C558.128 21.5396 557.093 21.5521 556.145 21.5686C547.359 21.751 535.671 23.6158 533.643 34.1998C533.053 37.3079 533.053 40.6687 533.643 43.2836C534.08 45.2687 534.834 46.9387 535.824 48.3477C540.115 54.4437 548.905 55.5791 556.165 55.7905C557.192 55.8195 561.232 55.8195 562.259 55.7905C569.523 55.5791 578.309 54.4437 582.601 48.3477C583.59 46.9387 584.344 45.2687 584.782 43.2836C585.371 40.6687 585.371 37.3037 584.782 34.1998H584.786ZM560.053 45.9524C559.789 45.9566 559.505 45.9649 559.216 45.969C558.928 45.9649 558.643 45.9566 558.379 45.9524H558.355C557.237 45.9234 556.161 45.8861 555.139 45.7742C553.436 45.5836 551.89 45.1816 550.575 44.2451C547.396 42.0114 547.363 36.0356 550.204 33.429C550.398 33.2674 550.595 33.1141 550.806 32.9732C550.83 32.9566 550.855 32.9441 550.876 32.9276C551.061 32.8032 551.255 32.6831 551.453 32.5795C551.564 32.5214 551.692 32.4759 551.808 32.422C551.977 32.3433 552.142 32.2604 552.319 32.1941C552.475 32.1361 552.644 32.0863 552.805 32.0366C552.958 31.9869 553.102 31.933 553.259 31.8874C553.415 31.846 553.576 31.8128 553.737 31.7755C553.91 31.7341 554.079 31.6885 554.261 31.6553C554.603 31.589 554.953 31.531 555.308 31.4854C556.495 31.3984 557.839 31.3114 559.22 31.2948C560.601 31.3155 561.945 31.4025 563.133 31.4854C563.487 31.531 563.838 31.589 564.18 31.6553C564.357 31.6885 564.53 31.7382 564.704 31.7755C564.864 31.8128 565.025 31.846 565.182 31.8874C565.339 31.9288 565.483 31.9869 565.635 32.0366C565.796 32.0905 565.965 32.1361 566.122 32.1941C566.299 32.2604 566.464 32.3433 566.633 32.422C566.748 32.4759 566.876 32.5214 566.988 32.5795C567.186 32.6872 567.375 32.8032 567.565 32.9276C567.59 32.9441 567.614 32.9566 567.635 32.9732C567.845 33.1141 568.043 33.2674 568.237 33.429C571.073 36.0356 571.044 42.0114 567.866 44.2451C566.551 45.1816 565 45.5877 563.302 45.7742C562.279 45.8861 561.203 45.9234 560.086 45.9524H560.053Z" fill="black"/>
<path d="M344.145 55.3926C344.009 55.3926 343.898 55.2817 343.898 55.1449V33.5676C343.898 33.4308 343.787 33.3199 343.65 33.3199H329.898C329.761 33.3199 329.65 33.209 329.65 33.0722V22.2051C329.65 22.0683 329.761 21.9574 329.898 21.9574H374.764C374.901 21.9574 375.011 22.0683 375.011 22.2051V33.0722C375.011 33.209 374.901 33.3199 374.764 33.3199H361.012C360.875 33.3199 360.764 33.4308 360.764 33.5676V55.1449C360.764 55.2817 360.653 55.3926 360.516 55.3926H344.145Z" fill="black"/>
<path d="M305.691 55.8081H299.876C279.859 55.8081 278.039 48.529 278.039 44.268V44.1607C278.039 44.0239 278.15 43.913 278.287 43.913H297.543C297.679 43.913 297.789 44.0237 297.797 44.1603C297.873 45.5675 298.673 47.4637 303.028 47.4637C306.934 47.4637 308.088 46.3541 308.088 45.1557V45.0226C308.088 43.913 307.644 42.8921 301.963 42.6702L294.994 42.4483C281.412 41.96 278.572 37.1665 278.572 31.9734V31.574C278.572 25.3601 283.543 21.543 299.521 21.543H305.158C322.868 21.543 326.996 26.2478 326.996 31.929C326.996 32.0516 326.896 32.151 326.774 32.151H307.862C307.738 32.151 307.633 32.0578 307.611 31.9348C307.424 30.8828 306.689 29.4879 302.584 29.4879C298.545 29.4879 297.79 30.1093 297.79 31.2189V31.3076C297.79 32.506 299.078 33.1718 304.182 33.305L310.84 33.4825C323.711 33.8376 328.238 36.9445 328.238 43.6466V44.268C328.238 50.1268 324.466 55.8081 305.691 55.8081Z" fill="black"/>
<rect x="607.29" width="77.6388" height="77.6388" rx="20.7308" fill="#FF4AB6"/>
<path d="M617.29 38.5C617.29 38.0413 617.447 37.6429 617.761 37.3049C618.051 36.9911 618.449 36.798 618.956 36.7255C622.918 36.1703 626.252 35.5667 628.958 34.9149C631.639 34.2872 633.85 33.4422 635.589 32.3799C637.328 31.3177 638.717 29.9174 639.756 28.1792C640.795 26.4651 641.628 24.2681 642.256 21.5883C642.909 18.9327 643.489 15.6493 643.996 11.7382C644.044 11.2071 644.237 10.7846 644.576 10.4708C644.914 10.1569 645.325 10 645.808 10C646.267 10 646.665 10.1569 647.003 10.4708C647.342 10.7846 647.535 11.2071 647.583 11.7382C648.018 15.6493 648.537 18.9447 649.141 21.6245C649.745 24.3043 650.579 26.5133 651.642 28.2516C652.705 29.9898 654.118 31.3901 655.881 32.4523C657.645 33.5146 659.88 34.3596 662.585 34.9873C665.315 35.6391 668.673 36.2185 672.659 36.7255C673.142 36.798 673.529 36.9911 673.818 37.305C674.133 37.6429 674.29 38.0413 674.29 38.5C674.29 38.9828 674.133 39.3812 673.818 39.695C673.529 40.0089 673.142 40.2141 672.659 40.3107C668.673 40.8177 665.315 41.385 662.585 42.0127C659.88 42.6645 657.645 43.5095 655.881 44.5476C654.118 45.6099 652.705 47.0102 651.642 48.7484C650.579 50.4867 649.745 52.6957 649.141 55.3755C648.537 58.0553 648.018 61.3628 647.583 65.298C647.535 65.8049 647.342 66.2154 647.003 66.5292C646.665 66.8431 646.267 67 645.808 67C645.325 67 644.914 66.8431 644.576 66.5292C644.237 66.2154 644.044 65.8049 643.996 65.298C643.561 61.3628 643.042 58.0553 642.438 55.3755C641.834 52.6957 641 50.4867 639.937 48.7484C638.899 47.0102 637.497 45.6099 635.734 44.5476C633.97 43.5095 631.724 42.6645 628.994 42.0127C626.264 41.385 622.918 40.8177 618.956 40.3107C618.449 40.2141 618.051 40.0089 617.761 39.695C617.447 39.3812 617.29 38.9828 617.29 38.5Z" fill="white"/>
</svg>
